# xmcd
#
# Track frame offsets:
#	150
#	18220
#	38737
#	52500
#	71062
#	78855
#	93742
#	110522
#
# Disc length: 1650
#
# Revision: 1
# Processed by: cddbd v1.5.1PL0 Copyright (c) Steve Scherf et al.
# Submitted via: CDex 1.51
# Normalized: r0:TDELIM( - ),TSWAP
#
DISCID=57067008
DTITLE=Various Artist - Nothing But Jazz
DYEAR=2000
DGENRE=Jazz
TTITLE0=Billie Holiday - Comes Love
TTITLE1=Sarah Vaughan - Doodlin'
TTITLE2=Louis Armstrong - A Kiss To Build A Dream On
TTITLE3=Ella Fitzgerald/Count Basie - Dream A Little Dream Of Me
TTITLE4=Shirley Horn - Sunday In New York
TTITLE5=Carmen McRae - Ain't Misbehavin'
TTITLE6=Mel Torme - Blue Moon
TTITLE7=Dinah Washington - Is You Is Or Is You Ain't My Baby
EXTD=YEAR: 2000
EXTT0=
EXTT1=
EXTT2=
EXTT3=
EXTT4=
EXTT5=
EXTT6=
EXTT7=
PLAYORDER=
